<svg xmlns="http://www.w3.org/2000/svg" xmlns:xlink="http://www.w3.org/1999/xlink" viewBox="0 0 137.0316 36"><defs><style>.cls-1{fill:#51515a;}.cls-1,.cls-2,.cls-3{fill-rule:evenodd;}.cls-2{fill:#fefefe;}.cls-3{fill:url(#linear-gradient);}.cls-4{fill:#fff;}</style><linearGradient id="linear-gradient" x1="0.0057" y1="8.7751" x2="35.9898" y2="8.7751" gradientUnits="userSpaceOnUse"><stop offset="0" stop-color="#48e08e"/><stop offset="1" stop-color="#48d0df"/></linearGradient></defs><title>ep-logo_1</title><g id="Layer_2" data-name="Layer 2"><g id="Layer_1-2" data-name="Layer 1"><path class="cls-1" d="M28.724,14.8974a.3509.3509,0,0,1-.3279-.3072,5.8,5.8,0,0,0-2.2681-3.4335A6.1658,6.1658,0,0,0,21.63,9.9675a6.0464,6.0464,0,0,0-2.4724.8343,5.97,5.97,0,0,0-2.5215,2.9248c-.04.0979-.082.1609-.2062.1587-.2631-.005-.5259.0228-.7882.0319-.654.0231-1.3042.0821-1.9557.135-1.04.0846-2.0717.2317-3.1.4016-1.3263.2191-2.6291.54-3.9283.8711-1.0438.2662-2.0678.6-3.0884.9423-.9013.3027-1.7943.626-2.6849.9561-.3011.0881-.5883.2111-.8781.3268Q0,17.7745,0,18a18.1,18.1,0,0,0,.2945,3.2561c.4574-.1775.9246-.33,1.39-.4869.6067-.2043,1.2164-.4,1.8247-.6a.9951.9951,0,0,0,.3221-.0933c.6129-.1689,1.2182-.3623,1.8392-.5062.4951-.1146.9752-.2919,1.4716-.4,1.3254-.2881,2.6574-.542,4.0034-.7309.9811-.1377,1.9652-.242,2.9511-.3291.7479-.0661,1.5-.09,2.25-.1359a.2572.2572,0,0,1,.3037.1789,5.9585,5.9585,0,0,0,2.2621,2.7257,6.3441,6.3441,0,0,0,6.8093.0834,5.9715,5.9715,0,0,0,1.9237-1.9128c.059-.0937.1083-.1676.2633-.1368a44.7557,44.7557,0,0,1,4.5754,1.1657q1.6349.5079,3.2342,1.1134A18.1136,18.1136,0,0,0,36,18c0-.1938-.0041-.3865-.01-.5788-.5621-.2253-1.123-.4536-1.6787-.6931A26.1352,26.1352,0,0,0,28.724,14.8974Z"/><path class="cls-2" d="M27.9083,18.9125c-.155-.0308-.2043.0431-.2633.1368a5.9715,5.9715,0,0,1-1.9237,1.9128,6.3441,6.3441,0,0,1-6.8093-.0834A5.9585,5.9585,0,0,1,16.65,18.153a.2572.2572,0,0,0-.3037-.1789c-.75.0457-1.5018.07-2.25.1359-.9859.0871-1.97.1914-2.9511.3291-1.346.1889-2.678.4428-4.0034.7309-.4964.1079-.9765.2852-1.4716.4-.621.1439-1.2263.3373-1.8392.5062a.9951.9951,0,0,1-.3221.0933c-.6083.2-1.218.3956-1.8247.6-.4653.1568-.9325.3094-1.39.4869a18.0033,18.0033,0,0,0,35.4234-.0645q-1.6-.6035-3.2342-1.1134A44.7557,44.7557,0,0,0,27.9083,18.9125Z"/><path class="cls-3" d="M3.5687,16.2672c1.0206-.3428,2.0446-.6761,3.0884-.9423,1.2992-.3313,2.602-.652,3.9283-.8711,1.0286-.17,2.06-.317,3.1-.4016.6515-.0529,1.3017-.1119,1.9557-.135.2623-.0091.5251-.0369.7882-.0319.1242.0022.1666-.0608.2062-.1587a5.97,5.97,0,0,1,2.5215-2.9248A6.0464,6.0464,0,0,1,21.63,9.9675a6.1658,6.1658,0,0,1,4.4983,1.1892A5.8,5.8,0,0,1,28.3961,14.59a.3509.3509,0,0,0,.3279.3072,26.1352,26.1352,0,0,1,5.5871,1.8307c.5557.2395,1.1166.4678,1.6787.6931A18,18,0,0,0,.0057,17.55c.29-.1157.577-.2387.8781-.3268C1.7744,16.8932,2.6674,16.57,3.5687,16.2672Z"/><path class="cls-2" d="M18.3685,15.7535A4.0391,4.0391,0,1,1,22.2922,19.82,4.0492,4.0492,0,0,1,18.3685,15.7535Z"/><path class="cls-4" d="M50.182,16.3V2.936h7.9649V5.2016H52.6957V8.0869h4.39V10.37h-4.39v3.6465h6V16.3Z"/><path class="cls-4" d="M60.8168,16.3174V2.9184H63.808c3.3633,0,5.8056,1.0088,5.8056,4.3189,0,2.6728-1.6992,4.4424-5.3457,4.4424H63.33v4.6377Zm3.3984-6.9209c1.8408,0,2.7442-.8321,2.7442-2.1592,0-1.2217-.7793-2.0357-2.461-2.0357H63.33V9.3965Z"/><path class="cls-4" d="M71.5931,16.3174V2.9184h2.5137v13.399Z"/><path class="cls-4" d="M88.5482,14.8305a6.6048,6.6048,0,0,1-4.85,1.7876,7.1738,7.1738,0,0,1-7.4521-6.9912,6.9761,6.9761,0,0,1,7.2216-7.01,6.5682,6.5682,0,0,1,4.9737,1.93L87.1146,6.2812a5.2373,5.2373,0,0,0-3.77-1.3984c-2.6015,0-4.4072,2.0356-4.4072,4.8144a4.7109,4.7109,0,0,0,4.7793,4.6553,5.4449,5.4449,0,0,0,3.6816-1.168Z"/><path class="cls-4" d="M50.182,34.3174V20.9184h2.9912c3.3633,0,5.8057,1.0088,5.8057,4.3189,0,2.6728-1.6992,4.4424-5.3457,4.4424h-.9375v4.6377ZM53.58,27.3965c1.8409,0,2.7442-.8321,2.7442-2.1592,0-1.2217-.7793-2.0357-2.461-2.0357H52.6957v4.1949Z"/><path class="cls-4" d="M69.4017,34.3174l-1.1679-2.46H62.1625l-1.168,2.46H58.1976l7.01-13.9834,7.0088,13.9834Zm-4.2129-8.8145-2,4.248H67.225Z"/><path class="cls-4" d="M75.8226,26.14l.0362,8.1778H73.3451L73.38,20.5468,83.222,29.45l-.0175-8.5313h2.5127L85.682,34.813Z"/><path class="cls-4" d="M100.139,32.8305a6.6045,6.6045,0,0,1-4.85,1.7876,7.1738,7.1738,0,0,1-7.4521-6.9912,6.9761,6.9761,0,0,1,7.2217-7.01,6.5681,6.5681,0,0,1,4.9736,1.93l-1.3272,1.7344a5.2373,5.2373,0,0,0-3.77-1.3984c-2.6015,0-4.4072,2.0356-4.4072,4.8144a4.7109,4.7109,0,0,0,4.7793,4.6553,5.4447,5.4447,0,0,0,3.6816-1.168Z"/><path class="cls-4" d="M111.6224,34.3174l-1.1679-2.46h-6.0713l-1.168,2.46h-2.7969l7.01-13.9834,7.0088,13.9834ZM107.41,25.5029l-2,4.248h4.0362Z"/><path class="cls-4" d="M123.7787,34.3174l-5.6817-5.1329v5.1329h-2.5136V20.9184h2.5136v5.1685l4.8321-5.1685h3.2568l-6.4609,6.5137,7.7529,6.8853Z"/><path class="cls-4" d="M128.5179,34.3V20.936h7.9649v2.2656h-5.4512v2.8853h4.39V28.37h-4.39v3.6465h6V34.3Z"/></g></g></svg>